[h264 @ 0x55994e873180] Reinit context to 1920x1056, pix_fmt: yuv420p
Input #0, mov,mp4,m4a,3gp,3g2,mj2, from '/var/www/html/project/media/video/original/lv_0_20220821212707.mp4':
  Metadata:
    major_brand     : isom
    minor_version   : 512
    compatible_brands: isomiso2avc1mp41
    Hw              : 1
                    : 
    LvMetaInfo      : {"data":{"appVersion":"6.5.0","capabilityName":"","ccTtVid":"","draftInfo":{"adjust":0,"aiMatting":0,"audioToText":0,"chroma":0,"coverTemplateId":"","curveSpeed":0,"faceEffectId":"","filterId":"","gameplayAlgorithm":"","graphs":0,"keyframe":0,"mask":0,"mi
    bitRate         : 10000000
                    : 
    copyright       : 7c215dc9963fb867b24e91cd12e05449
    maxrate         : 30000000
                    : 
    te_is_reencode  : 1
                    : 
    encoder         : bytevehwavc
  Duration: 00:00:23.73, start: 0.000000, bitrate: 9394 kb/s
    Stream #0:0(und): Video: h264 (High), 1 reference frame (avc1 / 0x31637661), yuv420p(tv, bt709, left), 1920x1056, 9272 kb/s, 30 fps, 30 tbr, 1000k tbn, 2000k tbc (default)
    Metadata:
      handler_name    : VideoHandler
    Stream #0:1(und): Audio: aac (LC) (mp4a / 0x6134706D), 44100 Hz, stereo, fltp, 128 kb/s (default)
    Metadata:
      handler_name    : SoundHandler
Input #1, png_pipe, from '/var/www/html/project/static/images/templates/logo.png':
  Duration: N/A, bitrate: N/A
    Stream #1:0: Video: png, 1 reference frame, rgba(pc), 1920x1080 [SAR 2835:2835 DAR 16:9], 25 tbr, 25 tbn, 25 tbc
[h264 @ 0x55994e9c7cc0] Reinit context to 1280x720, pix_fmt: yuv420p
Input #2, mov,mp4,m4a,3gp,3g2,mj2, from '/var/www/html/project/static/images/templates/Codino.mp4':
  Metadata:
    major_brand     : mp42
    minor_version   : 1
    compatible_brands: isommp41mp42
    creation_time   : 2021-07-11T07:02:58.000000Z
  Duration: 00:00:02.00, start: 0.000000, bitrate: 1007 kb/s
    Stream #2:0(ita): Audio: aac (LC) (mp4a / 0x6134706D), 44100 Hz, stereo, fltp, 102 kb/s (default)
    Metadata:
      creation_time   : 2021-07-11T07:02:58.000000Z
      handler_name    : Core Media Audio
    Stream #2:1(und): Video: h264 (High), 1 reference frame (avc1 / 0x31637661), yuv420p(tv, bt709, progressive, left), 1280x720 [SAR 1:1 DAR 16:9], 813 kb/s, 25 fps, 25 tbr, 25k tbn, 50k tbc (default)
    Metadata:
      creation_time   : 2021-07-11T07:02:58.000000Z
      handler_name    : Core Media Video
[Parsed_scale_0 @ 0x55994e9a0e80] w:1280 h:720 flags:'bilinear' interl:0
[Parsed_scale_2 @ 0x55994e8c3000] w:1280 h:720 flags:'bilinear' interl:0
[Parsed_scale_4 @ 0x55994e8b9200] w:1280 h:720 flags:'bilinear' interl:0
Stream mapping:
  Stream #0:0 (h264) -> scale
  Stream #0:1 (aac) -> concat:in0:a0
  Stream #1:0 (png) -> scale
  Stream #2:0 (aac) -> concat:in1:a0
  Stream #2:1 (h264) -> scale
  concat:out:v0 -> Stream #0:0 (libx264)
  concat:out:a0 -> Stream #0:1 (aac)
Press [q] to stop, [?] for help
[h264 @ 0x55994ea525c0] Reinit context to 1920x1056, pix_fmt: yuv420p
[h264 @ 0x55994ed45140] Reinit context to 1280x720, pix_fmt: yuv420p
[Parsed_scale_0 @ 0x559950232700] w:1280 h:720 flags:'bilinear' interl:0
[Parsed_scale_2 @ 0x55994ea07840] w:1280 h:720 flags:'bilinear' interl:0
[Parsed_scale_4 @ 0x55995023c3c0] w:1280 h:720 flags:'bilinear' interl:0
[graph 0 input from stream 0:0 @ 0x559950240c80] w:1920 h:1056 pixfmt:yuv420p tb:1/1000000 fr:30/1 sar:0/1 sws_param:flags=2
[graph 0 input from stream 1:0 @ 0x559950241d40] w:1920 h:1080 pixfmt:rgba tb:1/25 fr:25/1 sar:2835/2835 sws_param:flags=2
[graph 0 input from stream 2:1 @ 0x559950242dc0] w:1280 h:720 pixfmt:yuv420p tb:1/25000 fr:25/1 sar:1/1 sws_param:flags=2
[graph_0_in_0_1 @ 0x559950243d80] tb:1/44100 samplefmt:fltp samplerate:44100 chlayout:0x3
[graph_0_in_2_0 @ 0x559950244ec0] tb:1/44100 samplefmt:fltp samplerate:44100 chlayout:0x3
[Parsed_scale_0 @ 0x559950232700] w:1920 h:1056 fmt:yuv420p sar:0/1 -> w:1280 h:720 fmt:yuv420p sar:0/1 flags:0x2
[Parsed_setsar_1 @ 0x559950232d40] w:1280 h:720 sar:0/1 dar:16/9 -> sar:1/1 dar:16/9
[Parsed_scale_2 @ 0x55994ea07840] w:1920 h:1080 fmt:rgba sar:2835/2835 -> w:1280 h:720 fmt:yuva420p sar:1/1 flags:0x2
[Parsed_setsar_3 @ 0x55995023b8c0] w:1280 h:720 sar:1/1 dar:16/9 -> sar:1/1 dar:16/9
[Parsed_overlay_6 @ 0x55995023db00] main w:1280 h:720 fmt:yuv420p overlay w:1280 h:720 fmt:yuva420p
[Parsed_overlay_6 @ 0x55995023db00] [framesync @ 0x55995023dc68] Selected 1/1000000 time base
[Parsed_overlay_6 @ 0x55995023db00] [framesync @ 0x55995023dc68] Sync level 2
[Parsed_scale_4 @ 0x55995023c3c0] w:1280 h:720 fmt:yuv420p sar:1/1 -> w:1280 h:720 fmt:yuv420p sar:1/1 flags:0x2
[Parsed_setsar_5 @ 0x55995023cf00] w:1280 h:720 sar:1/1 dar:16/9 -> sar:1/1 dar:16/9
[libx264 @ 0x55994e9b6440] using SAR=1/1
[libx264 @ 0x55994e9b6440] using cpu capabilities: MMX2 SSE2Fast SSSE3 SSE4.2 AVX FMA3 BMI2 AVX2
[libx264 @ 0x55994e9b6440] profile High, level 3.1
[libx264 @ 0x55994e9b6440] 264 - core 155 r2917 0a84d98 - H.264/MPEG-4 AVC codec - Copyleft 2003-2018 - http://www.videolan.org/x264.html - options: cabac=1 ref=1 deblock=1:0:0 analyse=0x3:0x113 me=hex subme=2 psy=1 psy_rd=1.00:0.00 mixed_ref=0 me_range=16 chroma_me=1 trellis=0 8x8dct=1 cqm=0 deadzone=21,11 fast_pskip=1 chroma_qp_offset=0 threads=22 lookahead_threads=5 sliced_threads=0 nr=0 decimate=1 interlaced=0 bluray_compat=0 constrained_intra=0 bframes=3 b_pyramid=2 b_adapt=1 b_bias=0 direct=1 weightb=1 open_gop=0 weightp=1 keyint=250 keyint_min=25 scenecut=40 intra_refresh=0 rc_lookahead=10 rc=crf mbtree=1 crf=18.0 qcomp=0.60 qpmin=0 qpmax=69 qpstep=4 ip_ratio=1.40 aq=1:1.00
Output #0, mp4, to '/var/www/html/project/media/video/watermarks/lv_0_20220821212707.mp4':
  Metadata:
    major_brand     : isom
    minor_version   : 512
    compatible_brands: isomiso2avc1mp41
    Hw              : 1
                    : 
    LvMetaInfo      : {"data":{"appVersion":"6.5.0","capabilityName":"","ccTtVid":"","draftInfo":{"adjust":0,"aiMatting":0,"audioToText":0,"chroma":0,"coverTemplateId":"","curveSpeed":0,"faceEffectId":"","filterId":"","gameplayAlgorithm":"","graphs":0,"keyframe":0,"mask":0,"mi
    bitRate         : 10000000
                    : 
    copyright       : 7c215dc9963fb867b24e91cd12e05449
    maxrate         : 30000000
                    : 
    te_is_reencode  : 1
                    : 
    encoder         : Lavf58.29.100
    Stream #0:0: Video: h264 (libx264), 1 reference frame (avc1 / 0x31637661), yuv420p(progressive), 1280x720 [SAR 1:1 DAR 16:9], q=-1--1, 30 fps, 15360 tbn, 30 tbc (default)
    Metadata:
      encoder         : Lavc58.54.100 libx264
    Side data:
      cpb: bitrate max/min/avg: 0/0/0 buffer size: 0 vbv_delay: -1
    Stream #0:1: Audio: aac (LC) (mp4a / 0x6134706D), 44100 Hz, stereo, fltp, delay 1024, 128 kb/s (default)
    Metadata:
      encoder         : Lavc58.54.100 aac
[Parsed_overlay_6 @ 0x55995023db00] [framesync @ 0x55995023dc68] Sync level 0
[Parsed_concat_7 @ 0x55995023ed00] EOF on in0:v0, 1 streams left in segment.
[Parsed_concat_7 @ 0x55995023ed00] EOF on in0:a0, 0 streams left in segment.
[Parsed_concat_7 @ 0x55995023ed00] Segment finished at pts=23700000
[Parsed_concat_7 @ 0x55995023ed00] EOF on in1:a0, 1 streams left in segment.
[Parsed_concat_7 @ 0x55995023ed00] EOF on in1:v0, 0 streams left in segment.
[Parsed_concat_7 @ 0x55995023ed00] Segment finished at pts=25718685
No more output streams to write to, finishing.
frame=  761 fps=156 q=-1.0 Lsize=   15391kB time=00:00:25.72 bitrate=4900.8kbits/s speed=5.29x    
[AVIOContext @ 0x55994e871440] Statistics: 0 seeks, 10 writeouts
video:14967kB audio:396kB subtitle:0kB other streams:0kB global headers:0kB muxing overhead: 0.183505%
Input file #0 (/var/www/html/project/media/video/original/lv_0_20220821212707.mp4):
  Input stream #0:0 (video): 711 packets read (27468687 bytes); 711 frames decoded; 
  Input stream #0:1 (audio): 1022 packets read (380096 bytes); 1020 frames decoded (1044480 samples); 
  Total: 1733 packets (27848783 bytes) demuxed
Input file #1 (/var/www/html/project/static/images/templates/logo.png):
  Input stream #1:0 (video): 1 packets read (111578 bytes); 1 frames decoded; 
  Total: 1 packets (111578 bytes) demuxed
Input file #2 (/var/www/html/project/static/images/templates/Codino.mp4):
  Input stream #2:0 (audio): 89 packets read (26579 bytes); 87 frames decoded (89024 samples); 
  Input stream #2:1 (video): 50 packets read (203365 bytes); 50 frames decoded; 
  Total: 139 packets (229944 bytes) demuxed
Output file #0 (/var/www/html/project/media/video/watermarks/lv_0_20220821212707.mp4):
  Output stream #0:0 (video): 761 frames encoded; 761 packets muxed (15326551 bytes); 
  Output stream #0:1 (audio): 1108 frames encoded (1134194 samples); 1109 packets muxed (405422 bytes); 
  Total: 1870 packets (15731973 bytes) muxed
[AVIOContext @ 0x55994e9b99c0] Statistics: 2 seeks, 64 writeouts
[libx264 @ 0x55994e9b6440] frame I:5     Avg QP:16.52  size:108540
[libx264 @ 0x55994e9b6440] frame P:236   Avg QP:18.55  size: 37218
[libx264 @ 0x55994e9b6440] frame B:520   Avg QP:22.28  size: 11538
[libx264 @ 0x55994e9b6440] consecutive B-frames:  7.8%  2.6%  2.4% 87.3%
[libx264 @ 0x55994e9b6440] mb I  I16..4: 12.4% 20.5% 67.0%
[libx264 @ 0x55994e9b6440] mb P  I16..4:  7.9%  9.2%  3.0%  P16..4: 30.3% 17.7% 14.0%  0.0%  0.0%    skip:17.9%
[libx264 @ 0x55994e9b6440] mb B  I16..4:  1.5%  0.9%  0.1%  B16..8: 26.2% 10.3%  1.8%  direct:17.2%  skip:41.9%  L0:33.6% L1:39.3% BI:27.1%
[libx264 @ 0x55994e9b6440] 8x8 transform intra:41.9% inter:35.8%
[libx264 @ 0x55994e9b6440] coded y,uvDC,uvAC intra: 50.0% 62.8% 27.6% inter: 24.4% 17.3% 1.0%
[libx264 @ 0x55994e9b6440] i16 v,h,dc,p: 45% 38% 11%  6%
[libx264 @ 0x55994e9b6440] i8 v,h,dc,ddl,ddr,vr,hd,vl,hu: 26% 39% 17%  2%  3%  3%  3%  3%  4%
[libx264 @ 0x55994e9b6440] i4 v,h,dc,ddl,ddr,vr,hd,vl,hu: 32% 26% 11%  4%  6%  6%  6%  5%  5%
[libx264 @ 0x55994e9b6440] i8c dc,h,v,p: 42% 30% 23%  6%
[libx264 @ 0x55994e9b6440] Weighted P-Frames: Y:13.1% UV:1.3%
[libx264 @ 0x55994e9b6440] kb/s:4770.70
[aac @ 0x55994e8cf380] Qavg: 1965.007
[AVIOContext @ 0x55994e87a3c0] Statistics: 40860475 bytes read, 776 seeks
[AVIOContext @ 0x55994e877140] Statistics: 111578 bytes read, 0 seeks
[AVIOContext @ 0x55994e89cac0] Statistics: 1530915 bytes read, 42 seeks
